# xmcd CD database file
#
# Track frame offsets:
#	150
#	17276
#	32070
#	49406
#	68734
#	83578
#	100829
#	115411
#	133461
#	149735
#	165482
#	180076
#	200806
#	219776
#	237899
#	257997
#	272517
#	287807
#
# Disc length: 4086 seconds
#
# Revision: 0
# Processed by: cddbd v1.5.2PL0 Copyright (c) Steve Scherf et al.
# Submitted via: CDex 1.51
#
DISCID=050ff412
DTITLE=Various Artist - 100% Merengue Bachata CD2
DYEAR=2009
DGENRE=Merengue
TTITLE0=Aventura - Mi Corazoncito
TTITLE1=E'Real - Sola
TTITLE2=Papi Sanchez feat Martha Infante - Sigo Con Mi Calor
TTITLE3=Zache - Enamoraito
TTITLE4=Grupo Rush - Jasmine
TTITLE5=Villanosam - Damelo Mami
TTITLE6=Neury Luciano - El Camaleon
TTITLE7=Eddy Herrera - Tu Mirada
TTITLE8=La Banda Gorda - Ella Tiene Una Cosa Que Amarra
TTITLE9=Orlando Conga - Ta Buena
TTITLE10=Pablo Bachata - El Tiguere Del Diablo
TTITLE11=Kinito Mendez - A Caballo
TTITLE12=Los Toros Band - Los Fines De Semana
TTITLE13=Amarfis Y La Banda De Atakke - Chillin'
TTITLE14=Raul Acosta Y Oro Solido - Mueve La Booty
TTITLE15=Prophex - Lights Out
TTITLE16=Pablo Bachata - El Bacan Yol
TTITLE17=Luis Miguel - Se Acabo Lo Bonito
EXTD=YEAR: 2009
EXTT0=
EXTT1=
EXTT2=
EXTT3=
EXTT4=
EXTT5=
EXTT6=
EXTT7=
EXTT8=
EXTT9=
EXTT10=
EXTT11=
EXTT12=
EXTT13=
EXTT14=
EXTT15=
EXTT16=
EXTT17=
PLAYORDER=
